<?xml version="1.0" encoding="utf-8"?><!-- Uploaded to: SVG Repo, www.svgrepo.com, Generator: SVG Repo Mixer Tools -->
<svg width="800px" height="800px" viewBox="0 0 24 24" xmlns="http://www.w3.org/2000/svg" id="statistic-grow" class="icon glyph"><path d="M22,5v5a1,1,0,0,1-2,0V7.41l-5.29,5.3a1,1,0,0,1-1.16.18L8.26,10.25,3.77,15.64A1,1,0,0,1,3,16a1,1,0,0,1-.64-.23,1,1,0,0,1-.13-1.41l5-6a1,1,0,0,1,1.22-.25l5.35,2.67L18.59,6H16a1,1,0,0,1,0-2h5a1,1,0,0,1,.38.08,1,1,0,0,1,.54.54A1,1,0,0,1,22,5ZM21,18H3a1,1,0,0,0,0,2H21a1,1,0,0,0,0-2Z" style="fill:#231f20"></path></svg>